ply
format ascii 1.0
comment Created in Blender version 4.0.1
element vertex 88
property float x
property float y
property float z
property uchar red
property uchar green
property uchar blue
property uchar alpha
element face 147
property list uchar uint vertex_indices
end_header
-0.11283816 0.31003866 -0.094031684 213 158 0 255
0.12681037 0.30989045 -0.09508798 213 158 0 255
-0.062017493 0.14758228 -0.16091314 213 158 0 255
-0.062392145 0.38646612 -0.28545827 213 158 0 255
0.07491718 0.386377 -0.2860422 213 158 0 255
-0.062686466 0.29917777 -0.3413449 213 158 0 255
0.07462286 0.29908866 -0.34192884 213 158 0 255
0.0062625166 0.38642156 -0.2857502 213 158 0 255
0.07516064 0.14672364 -0.16179952 213 158 0 255
0.075164095 0.16028452 -0.19348496 213 158 0 255
0.12655786 0.34294537 -0.17773157 213 158 0 255
0.04080251 0.0013054758 -0.37141728 213 158 0 255
0.04134411 -0.052710563 -0.23630717 213 158 0 255
-0.062145233 0.1603736 -0.19290102 213 158 0 255
-0.113202274 0.34650013 -0.18521258 213 158 0 255
-0.028966684 -0.05266562 -0.23600875 213 158 0 255
-0.029504627 0.0013511032 -0.37111825 213 158 0 255
-0.029210817 -0.02814117 -0.29735255 213 158 0 255
0.25128758 0.3025503 -0.1109582 213 158 0 255
0.25077233 0.3658262 -0.1415636 213 158 0 255
0.25071782 0.32316917 -0.15858126 213 158 0 255
0.2509552 0.34607336 -0.09236188 213 158 0 255
0.2508365 0.31300363 -0.13311705 213 158 0 255
-0.23682849 0.3466166 -0.09066739 213 158 0 255
-0.23737565 0.30286738 -0.10888001 213 158 0 255
0.021065252 -0.1033656 -0.36641654 213 158 0 255
0.021313166 -0.12781373 -0.3053366 213 158 0 255
-0.23703861 0.36614275 -0.13948904 213 158 0 255
-0.2371842 0.32348576 -0.1565063 213 158 0 255
-0.23690854 0.35594344 -0.11399852 213 158 0 255
-0.23179792 0.3224308 -0.12939662 212 158 3 255
-0.009866726 -0.10334998 -0.3662805 213 158 0 255
-0.00962406 -0.1277925 -0.3052108 213 158 0 255
-0.010090206 -0.12648013 -0.30853873 55 55 55 255
0.007994369 -0.53949946 -0.46689132 55 55 55 255
0.0017884029 -0.5394954 -0.4668649 55 55 55 255
0.021537686 -0.10472196 -0.3631376 55 55 55 255
-0.010307698 -0.10470128 -0.36300218 55 55 55 255
0.007951984 -0.53525525 -0.47750506 55 55 55 255
0.021755178 -0.12650082 -0.30867416 55 55 55 255
0.0017460184 -0.5352512 -0.47747865 55 55 55 255
0.029981136 0.30667537 -0.36364335 55 55 55 255
-0.018221233 0.30670667 -0.3634383 55 55 55 255
0.049272142 0.4061783 -0.32920823 55 55 55 255
-0.03708951 0.40623432 -0.32884094 55 55 55 255
0.0421988 0.29591304 -0.34291542 55 55 55 255
-0.030276112 0.29596007 -0.3426072 55 55 55 255
0.07117585 0.386396 -0.28871107 55 55 55 255
-0.058673628 0.3864802 -0.28815883 55 55 55 255
-0.2421867 0.30602473 -0.1398934 55 55 55 255
-0.36012468 0.34983307 -0.1053628 55 55 55 255
-0.24313945 0.31982973 -0.1601211 55 55 55 255
-0.23987626 0.3439095 -0.17216977 55 55 55 255
-0.23490788 0.3629216 -0.16458705 55 55 55 255
-0.35761553 0.37709293 -0.11999607 57 57 57 255
-0.3543986 0.38916668 -0.116474256 55 55 55 255
-0.22967143 0.37136674 -0.13956618 55 55 55 255
-0.350473 0.39809856 -0.102184236 55 55 55 255
-0.22649549 0.3655498 -0.11645302 55 55 55 255
-0.34569293 0.3996364 -0.07789471 55 55 55 255
-0.22643094 0.35352674 -0.09400755 55 55 55 255
-0.34613392 0.38071984 -0.053136572 55 55 55 255
-0.22959596 0.32682753 -0.07965437 55 55 55 255
-0.3505476 0.3597508 -0.049872547 55 55 55 255
-0.23459673 0.30769154 -0.087286524 55 55 55 255
-0.24021555 0.30037275 -0.11451048 55 55 55 255
-0.35757282 0.34126374 -0.07404024 55 55 55 255
0.24042477 0.36524683 -0.11843875 55 55 55 255
0.35999 0.39917845 -0.08089585 55 55 55 255
0.24133553 0.36750004 -0.12216869 55 55 55 255
0.36201558 0.39716554 -0.08765446 55 55 55 255
0.24341156 0.37105972 -0.14157811 55 55 55 255
0.24842404 0.36260796 -0.16664256 55 55 55 255
0.36456126 0.39763457 -0.105225146 55 55 55 255
0.25330305 0.34358948 -0.17426717 55 55 55 255
0.36865002 0.38820082 -0.1198823 55 55 55 255
0.25663736 0.31950542 -0.16224656 55 55 55 255
0.37292627 0.36502793 -0.11829735 55 55 55 255
0.2557193 0.30761874 -0.14509533 55 55 55 255
0.37386185 0.3480309 -0.106514946 55 55 55 255
0.25407624 0.300052 -0.11661261 55 55 55 255
0.37129536 0.34005696 -0.07578445 55 55 55 255
0.24869871 0.30737793 -0.08934189 55 55 55 255
0.36714864 0.3522838 -0.058129244 55 55 55 255
0.36440715 0.36297005 -0.053845063 55 55 55 255
0.24378785 0.32652035 -0.08166758 55 55 55 255
0.24053554 0.35322374 -0.095993474 55 55 55 255
0.3610665 0.3793096 -0.056102633 55 55 55 255
3 1 21 10
3 17 32 15
3 10 4 7
3 26 12 32
3 34 40 35
3 50 49 51
3 54 52 53
3 63 62 64
3 54 53 55
3 13 15 2
3 63 64 66
3 70 71 69
3 75 74 72
3 84 85 82
3 73 75 72
3 83 84 82
3 84 87 85
3 9 8 12
3 12 15 32
3 34 38 40
3 86 85 87
3 1 2 8
3 20 9 6
3 3 28 27
3 9 18 8
3 0 24 2
3 24 13 2
3 9 11 6
3 10 19 4
3 25 12 26
3 14 27 29
3 29 0 14
3 13 16 17
3 15 8 2
3 10 0 1
3 4 20 6
3 13 28 5
3 17 31 32
3 14 7 3
3 1 18 21
3 16 7 6
3 34 33 39
3 36 40 38
3 39 38 34
3 33 36 39
3 33 40 37
3 43 42 44
3 48 43 44
3 45 48 46
3 41 46 42
3 43 45 41
3 44 46 48
3 50 65 49
3 54 51 52
3 57 53 56
3 59 56 58
3 60 59 58
3 62 61 60
3 64 65 66
3 86 68 67
3 55 59 63
3 71 73 72
3 49 60 56
3 74 77 76
3 76 79 78
3 80 79 81
3 82 81 83
3 70 84 81
3 69 68 70
3 72 80 67
3 13 17 15
3 1 0 2
3 20 22 9
3 3 5 28
3 9 22 18
3 0 23 24
3 24 30 13
3 9 12 11
3 10 21 19
3 25 11 12
3 14 3 27
3 29 23 0
3 13 5 16
3 15 12 8
3 10 14 0
3 4 19 20
3 13 30 28
3 17 16 31
3 14 10 7
3 1 8 18
3 6 11 25
3 25 31 16
3 16 5 3
3 7 4 6
3 16 3 7
3 6 25 16
3 34 35 33
3 36 37 40
3 39 36 38
3 33 37 36
3 33 35 40
3 43 41 42
3 48 47 43
3 45 47 48
3 41 45 46
3 43 47 45
3 44 42 46
3 50 66 65
3 54 50 51
3 57 55 53
3 59 57 56
3 60 61 59
3 62 63 61
3 86 87 68
3 63 66 50
3 50 54 55
3 55 57 59
3 59 61 63
3 63 50 55
3 71 70 73
3 56 53 52
3 52 51 49
3 49 65 64
3 64 62 60
3 60 58 56
3 56 52 49
3 49 64 60
3 74 75 77
3 76 77 79
3 80 78 79
3 82 80 81
3 77 75 73
3 70 68 87
3 77 73 70
3 81 79 77
3 84 83 81
3 70 87 84
3 81 77 70
3 69 67 68
3 69 71 72
3 72 74 76
3 76 78 80
3 80 82 85
3 85 86 67
3 67 69 72
3 72 76 80
3 80 85 67
