ply
format ascii 1.0
comment Created in Blender version 4.0.1
element vertex 128
property float x
property float y
property float z
property uchar red
property uchar green
property uchar blue
property uchar alpha
element face 61
property list uchar uint vertex_indices
end_header
-0.483599 -0.484798 -0.482287 201 201 201 255
-0.483704 -0.184798 -0.482287 201 201 201 255
0.479733 -0.184798 -0.481058 201 201 201 255
0.479249 -0.484798 -0.478605 201 201 201 255
-0.443906 -0.184798 -0.44201 201 201 201 255
0.439144 -0.184798 -0.441283 201 201 201 255
0.449978 0.181929 -0.441098 201 201 201 255
0.449978 0.481929 -0.441098 201 201 201 255
-0.450021 0.7651117 -0.442063 201 201 201 255
-0.450021 0.181929 -0.442063 201 201 201 255
-0.449978 0.181929 -0.482063 201 201 201 255
-0.449978 0.7651117 -0.482063 201 201 201 255
0.450021 0.481929 -0.481098 201 201 201 255
0.450021 0.181929 -0.481098 201 201 201 255
-0.449978 -0.149103 -0.482063 201 201 201 255
-0.449978 0.150897 -0.482063 201 201 201 255
0.450021 0.150897 -0.481098 201 201 201 255
0.450021 -0.149103 -0.481098 201 201 201 255
0.449978 -0.149103 -0.441098 201 201 201 255
-0.450021 -0.149103 -0.442063 201 201 201 255
-0.450021 0.150897 -0.442063 201 201 201 255
0.449978 0.150897 -0.441098 201 201 201 255
0.479451 -0.484798 0.482298 201 201 201 255
0.479451 -0.184798 0.482298 201 201 201 255
-0.483853 -0.184798 0.481352 201 201 201 255
-0.483853 -0.484798 0.481352 201 201 201 255
0.439321 -0.184798 0.441866 201 201 201 255
-0.443788 -0.184798 0.441442 201 201 201 255
0.448988 0.181929 0.482063 201 201 201 255
0.448988 0.481929 0.482063 201 201 201 255
-0.451011 0.7651117 0.481098 201 201 201 255
-0.451011 0.181929 0.481098 201 201 201 255
-0.450968 0.181929 0.441098 201 201 201 255
-0.450968 0.7651117 0.441098 201 201 201 255
0.449031 0.481929 0.442063 201 201 201 255
0.449031 0.181929 0.442063 201 201 201 255
0.448988 -0.149103 0.482063 201 201 201 255
0.448988 0.150897 0.482063 201 201 201 255
-0.451011 0.150897 0.481098 201 201 201 255
-0.451011 -0.149103 0.481098 201 201 201 255
-0.450968 -0.149103 0.441098 201 201 201 255
0.449031 -0.149103 0.442063 201 201 201 255
0.449031 0.150897 0.442063 201 201 201 255
-0.450968 0.150897 0.441098 201 201 201 255
-0.483853 -0.484798 0.481352 201 201 201 255
-0.483853 -0.184798 0.481352 201 201 201 255
-0.483704 -0.184798 -0.482287 201 201 201 255
-0.483599 -0.484798 -0.482287 201 201 201 255
-0.443788 -0.184798 0.441442 201 201 201 255
-0.443906 -0.184798 -0.44201 201 201 201 255
-0.443912 0.181929 -0.45 201 201 201 255
-0.443912 0.7651117 -0.45 201 201 201 255
-0.443912 0.7651117 0.45 201 201 201 255
-0.443912 0.181929 0.45 201 201 201 255
-0.483912 0.181929 0.45 201 201 201 255
-0.483912 0.7651117 0.45 201 201 201 255
-0.483912 0.7651117 -0.45 201 201 201 255
-0.483912 0.181929 -0.45 201 201 201 255
-0.483912 -0.149103 0.45 201 201 201 255
-0.483912 0.150897 0.45 201 201 201 255
-0.483912 0.150897 -0.45 201 201 201 255
-0.483912 -0.149103 -0.45 201 201 201 255
-0.443912 -0.149103 -0.45 201 201 201 255
-0.443912 -0.149103 0.45 201 201 201 255
-0.443912 0.150897 0.45 201 201 201 255
-0.443912 0.150897 -0.45 201 201 201 255
0.479249 -0.484798 -0.478605 201 201 201 255
0.479733 -0.184798 -0.481058 201 201 201 255
0.479451 -0.184798 0.482298 201 201 201 255
0.479451 -0.484798 0.482298 201 201 201 255
0.439144 -0.184798 -0.441283 201 201 201 255
0.439321 -0.184798 0.441866 201 201 201 255
0.479249 0.181929 -0.45 201 201 201 255
0.479249 0.481929 -0.45 201 201 201 255
0.479249 0.481929 0.45 201 201 201 255
0.479249 0.181929 0.45 201 201 201 255
0.439249 0.181929 0.45 201 201 201 255
0.439249 0.481929 0.45 201 201 201 255
0.439249 0.481929 -0.45 201 201 201 255
0.439249 0.181929 -0.45 201 201 201 255
0.479249 -0.149103 -0.45 201 201 201 255
0.479249 0.150897 -0.45 201 201 201 255
0.479249 0.150897 0.45 201 201 201 255
0.479249 -0.149103 0.45 201 201 201 255
0.439249 -0.149103 0.45 201 201 201 255
0.439249 -0.149103 -0.45 201 201 201 255
0.439249 0.150897 -0.45 201 201 201 255
0.439249 0.150897 0.45 201 201 201 255
-0.435418 -0.516388 -0.435418 201 201 201 255
-0.435418 0.370981 -0.435418 26 60 56 255
0.435418 0.370981 -0.435418 27 60 56 255
0.435418 -0.516388 -0.435418 201 201 201 255
0.435418 0.370981 0.435418 26 60 56 255
0.435418 -0.516388 0.435418 201 201 201 255
-0.435418 0.370981 0.435418 26 60 56 255
-0.435418 -0.516388 0.435418 201 201 201 255
-0.500037 -0.5 -0.498148 99 99 99 255
-0.500037 0.7837477 -0.49814802 126 125 125 255
-0.420037 0.7837477 -0.49814802 126 125 125 255
-0.420037 -0.5 -0.498148 102 102 102 255
-0.420037 0.7837477 -0.41814804 126 125 125 255
-0.420037 -0.5 -0.418148 201 201 201 255
-0.500037 0.7837477 -0.41814804 126 125 125 255
-0.500037 -0.5 -0.418148 99 99 99 255
-0.500037 -0.5 0.421386 99 99 99 255
-0.500037 0.7837477 0.421386 126 125 125 255
-0.420037 0.7837477 0.421386 126 125 125 255
-0.420037 -0.5 0.421386 201 201 201 255
-0.420037 0.7837477 0.501386 126 125 125 255
-0.420037 -0.5 0.501386 99 99 99 255
-0.500037 0.7837477 0.501386 126 125 125 255
-0.500037 -0.5 0.501386 99 99 99 255
0.417879 -0.5 0.421386 201 201 201 255
0.417879 0.5 0.421386 126 125 125 255
0.497879 0.5 0.421386 126 125 125 255
0.497879 -0.5 0.421386 99 99 99 255
0.497879 0.5 0.501386 126 125 125 255
0.497879 -0.5 0.501386 99 99 99 255
0.417879 0.5 0.501386 126 125 125 255
0.417879 -0.5 0.501386 99 99 99 255
0.417879 -0.5 -0.498148 100 99 99 255
0.417879 0.5 -0.498148 126 125 125 255
0.497879 0.5 -0.498148 126 125 125 255
0.497879 -0.5 -0.498148 100 99 99 255
0.497879 0.5 -0.418148 126 125 125 255
0.497879 -0.5 -0.418148 100 100 100 255
0.417879 0.5 -0.418148 126 125 125 255
0.417879 -0.5 -0.418148 201 201 201 255
4 0 1 2 3
4 4 5 2 1
4 6 7 8 9
4 10 11 12 13
4 6 9 10 13
4 8 7 12 11
4 14 15 16 17
4 18 19 14 17
4 20 21 16 15
4 22 23 24 25
4 24 23 26 27
4 28 29 30 31
4 32 33 34 35
4 28 31 32 35
4 30 29 34 33
4 36 37 38 39
4 36 39 40 41
4 38 37 42 43
4 44 45 46 47
4 48 49 46 45
4 50 51 52 53
4 54 55 56 57
4 50 53 54 57
4 52 51 56 55
4 58 59 60 61
4 62 63 58 61
4 64 65 60 59
4 66 67 68 69
4 68 67 70 71
4 72 73 74 75
4 76 77 78 79
4 72 75 76 79
4 74 73 78 77
4 80 81 82 83
4 80 83 84 85
4 82 81 86 87
4 88 89 90 91
4 91 90 92 93
4 93 92 94 95
4 95 94 89 88
4 92 90 89 94
4 96 97 98 99
4 99 98 100 101
4 101 100 102 103
4 103 102 97 96
4 100 98 97 102
4 104 105 106 107
4 107 106 108 109
4 109 108 110 111
4 111 110 105 104
4 108 106 105 110
4 112 113 114 115
4 115 114 116 117
4 117 116 118 119
4 119 118 113 112
4 116 114 113 118
4 120 121 122 123
4 123 122 124 125
4 125 124 126 127
4 127 126 121 120
4 124 122 121 126
