ply
format ascii 1.0
comment Created in Blender version 4.0.1
element vertex 104
property float x
property float y
property float z
property uchar red
property uchar green
property uchar blue
property uchar alpha
element face 182
property list uchar uint vertex_indices
element edge 4
property int vertex1
property int vertex2
end_header
0.15 0.15 0.5 220 123 0 255
0.082958 0.15 -0.432314 220 123 0 255
0.082958 0.15 0.439121 220 123 0 255
-0.15 -0.15 0.45491 220 123 0 255
-0.15 -0.15 0.5 220 123 0 255
-0.15 0.15 0.5 220 123 0 255
-0.082958 0.15 0.439121 220 123 0 255
-0.15 0.15 -0.5 220 123 0 255
0.15 0.15 -0.5 220 123 0 255
-0.082958 0.15 -0.432314 220 123 0 255
0.15 -0.15 -0.455419 220 123 0 255
0.15 -0.15 -0.5 220 123 0 255
0.15 -0.15 0.5 220 123 0 255
0.15 -0.15 0.456678 220 123 0 255
-0.15 -0.15 -0.5 220 123 0 255
-0.15 -0.15 -0.456731 220 123 0 255
0.31189 -0.500818 0.456678 220 123 0 255
0.31189 -0.500818 0.5 220 123 0 255
-0.290434 -0.500818 0.45491 220 123 0 255
-0.290434 -0.500818 0.5 220 123 0 255
-0.290434 -0.500818 -0.456731 220 123 0 255
0.31189 -0.500818 -0.455419 220 123 0 255
-0.082958 0.079619 0.439121 92 51 0 255
0.082958 0.079619 0.439121 92 51 0 255
0.082958 0.079619 -0.432314 92 51 0 255
-0.082958 0.079619 -0.432314 92 51 0 255
0.065567 0.079944 -0.402233 68 93 41 255
-0.065568 0.079944 -0.402233 68 93 41 255
-0.065567 0.079944 0.034884 68 93 41 255
0.065568 0.079944 0.034884 68 93 41 255
-0.290434 -0.500818 -0.5 220 123 0 255
0.31189 -0.500818 -0.5 220 123 0 255
-0.11614284 0.109992385 -0.002722473 158 107 57 255
-0.11615911 0.109992385 0.001363086 158 107 54 255
0.11907545 0.109992385 -0.0008957712 156 102 47 255
0.119091704 0.109992385 -0.0049813236 157 104 52 255
0.11907545 0.10590793 -0.0008957712 156 103 49 255
0.119091704 0.10590793 -0.0049813236 156 102 46 255
-0.11615911 0.10590793 0.001363086 156 102 46 255
-0.11614284 0.10590793 -0.002722473 156 103 47 255
0.0035652947 0.35199904 -0.0018292713 254 254 254 255
-0.006032764 0.35199904 -0.0017371054 254 254 254 255
0.0033760872 0.34731883 0.045702655 254 254 254 255
-0.006221975 0.34731883 0.045794826 254 254 254 255
0.003194144 0.333458 0.09140796 254 254 254 255
-0.0064039156 0.333458 0.091500126 254 254 254 255
0.0030264743 0.31094927 0.1335302 254 254 254 255
-0.0065715834 0.31094927 0.13362238 254 254 254 255
0.002879491 0.28065762 0.17045066 254 254 254 255
-0.0067185666 0.28065762 0.17054284 254 254 254 255
0.0027588904 0.24374714 0.20075051 254 254 254 255
-0.0068391683 0.24374714 0.2008427 254 254 254 255
0.0026692506 0.20163628 0.22326528 254 254 254 255
-0.006928794 0.20163628 0.22335745 254 254 254 255
0.0026140735 0.15594327 0.23712984 254 254 254 255
-0.006984 0.15594327 0.23722202 254 254 254 255
0.0025954284 0.10842416 0.24181134 254 254 254 255
-0.0070026163 0.10842416 0.24190351 254 254 254 255
0.0026140735 0.06090504 0.23712984 254 254 254 255
-0.006984 0.06090504 0.23722202 254 254 254 255
0.0026692506 0.015212059 0.22326528 254 254 254 255
-0.006928794 0.015212059 0.22335745 254 254 254 255
0.0027588904 -0.026898801 0.20075051 254 254 254 255
-0.0068391683 -0.026898801 0.2008427 254 254 254 255
0.002879491 -0.06380933 0.17045066 254 254 254 255
-0.0067185666 -0.06380933 0.17054284 254 254 254 255
0.0030264743 -0.094100975 0.1335302 254 254 254 255
-0.0065715834 -0.094100975 0.13362238 254 254 254 255
0.003194144 -0.116609715 0.09140796 254 254 254 255
-0.0064039156 -0.116609715 0.091500126 254 254 254 255
0.0033760872 -0.13047051 0.045702655 254 254 254 255
-0.006221975 -0.13047051 0.045794826 254 254 254 255
0.0035652947 -0.13515076 -0.0018292713 254 254 254 255
-0.006032764 -0.13515076 -0.0017371054 254 254 254 255
0.0037545096 -0.13047051 -0.049361195 254 254 254 255
-0.005843549 -0.13047051 -0.04926903 254 254 254 255
0.0039364453 -0.116609715 -0.09506652 254 254 254 255
-0.0056616133 -0.116609715 -0.094974354 254 254 254 255
0.00410413 -0.094100975 -0.13718875 254 254 254 255
-0.0054939436 -0.094100975 -0.13709657 254 254 254 255
0.0042510983 -0.06380933 -0.17410919 254 254 254 255
-0.005346976 -0.06380933 -0.17401701 254 254 254 255
0.0043717157 -0.026898801 -0.20440902 254 254 254 255
-0.005226358 -0.026898801 -0.20431684 254 254 254 255
0.004461337 0.015212059 -0.22692387 254 254 254 255
-0.0051367367 0.015212059 -0.22683169 254 254 254 255
0.004516514 0.06090504 -0.24078842 254 254 254 255
-0.0050815307 0.06090504 -0.24069627 254 254 254 255
0.004535159 0.10842416 -0.24546994 254 254 254 255
-0.0050629145 0.10842416 -0.24537776 254 254 254 255
0.004516514 0.15594327 -0.24078842 254 254 254 255
-0.0050815307 0.15594327 -0.24069627 254 254 254 255
0.004461337 0.20163628 -0.22692387 254 254 254 255
-0.0051367367 0.20163628 -0.22683169 254 254 254 255
0.0043717157 0.24374714 -0.20440902 254 254 254 255
-0.005226358 0.24374714 -0.20431684 254 254 254 255
0.0042510983 0.28065762 -0.17410919 254 254 254 255
-0.005346976 0.28065762 -0.17401701 254 254 254 255
0.00410413 0.31094927 -0.13718875 254 254 254 255
-0.0054939436 0.31094927 -0.13709657 254 254 254 255
0.0039364453 0.333458 -0.09506652 254 254 254 255
-0.0056616133 0.333458 -0.094974354 254 254 254 255
0.0037545096 0.34731883 -0.049361195 254 254 254 255
-0.005843549 0.34731883 -0.04926903 254 254 254 255
3 0 1 2
3 3 4 5
3 0 6 5
3 7 1 8
3 5 9 7
3 10 11 8
3 0 12 13
3 7 14 15
3 13 17 16
3 0 8 1
3 18 13 16
3 19 12 4
3 20 10 15
3 23 25 22
3 0 2 6
3 7 9 1
3 5 6 9
3 1 25 24
3 9 22 25
3 2 24 23
3 3 7 15
3 30 11 31
3 10 0 13
3 4 18 19
3 11 21 31
3 15 30 20
3 6 23 22
3 3 10 13
3 32 34 35
3 37 34 36
3 36 33 38
3 39 35 37
3 36 39 37
3 12 5 4
3 14 8 11
3 41 42 40
3 43 44 42
3 45 46 44
3 47 48 46
3 49 50 48
3 51 52 50
3 53 54 52
3 55 56 54
3 56 59 58
3 58 61 60
3 60 63 62
3 62 65 64
3 64 67 66
3 66 69 68
3 68 71 70
3 70 73 72
3 72 75 74
3 74 77 76
3 76 79 78
3 78 81 80
3 80 83 82
3 82 85 84
3 84 87 86
3 86 89 88
3 89 90 88
3 91 92 90
3 93 94 92
3 95 96 94
3 97 98 96
3 99 100 98
3 77 61 45
3 101 102 100
3 103 40 102
3 70 86 102
3 13 12 17
3 18 3 13
3 19 17 12
3 20 21 10
3 23 24 25
3 1 9 25
3 9 6 22
3 2 1 24
3 3 5 7
3 30 14 11
3 10 8 0
3 4 3 18
3 11 10 21
3 15 14 30
3 6 2 23
3 3 15 10
3 32 33 34
3 37 35 34
3 36 34 33
3 39 32 35
3 36 38 39
3 12 0 5
3 14 7 8
3 41 43 42
3 43 45 44
3 45 47 46
3 47 49 48
3 49 51 50
3 51 53 52
3 53 55 54
3 55 57 56
3 56 57 59
3 58 59 61
3 60 61 63
3 62 63 65
3 64 65 67
3 66 67 69
3 68 69 71
3 70 71 73
3 72 73 75
3 74 75 77
3 76 77 79
3 78 79 81
3 80 81 83
3 82 83 85
3 84 85 87
3 86 87 89
3 89 91 90
3 91 93 92
3 93 95 94
3 95 97 96
3 97 99 98
3 99 101 100
3 45 43 41
3 41 103 101
3 101 99 97
3 97 95 93
3 93 91 89
3 89 87 85
3 85 83 81
3 81 79 77
3 77 75 73
3 73 71 69
3 69 67 65
3 65 63 61
3 61 59 57
3 57 55 53
3 53 51 49
3 49 47 45
3 45 41 101
3 101 97 93
3 93 89 85
3 85 81 77
3 77 73 69
3 69 65 61
3 61 57 53
3 53 49 45
3 45 101 93
3 93 85 77
3 77 69 61
3 61 53 45
3 45 93 77
3 101 103 102
3 103 41 40
3 102 40 42
3 42 44 46
3 46 48 50
3 50 52 54
3 54 56 58
3 58 60 62
3 62 64 66
3 66 68 70
3 70 72 74
3 74 76 78
3 78 80 82
3 82 84 86
3 86 88 90
3 90 92 94
3 94 96 98
3 98 100 102
3 102 42 46
3 46 50 54
3 54 58 62
3 62 66 70
3 70 74 78
3 78 82 86
3 86 90 94
3 94 98 102
3 102 46 54
3 54 62 70
3 70 78 86
3 86 94 102
3 102 54 70
28 29
26 27
27 28
26 29
